HIERARCHY
ROOT Hips
{
  OFFSET -35.4901 99.2528 17.4586
  CHANNELS 6 Xposition Yposition Zposition Zrotation Xrotation Yrotation
  JOINT LeftUpLeg
  {
    OFFSET 8.64259 1.95398 -2.38835
    CHANNELS 3 Zrotation Xrotation Yrotation
    JOINT LeftLeg
    {
      OFFSET 43.7702 0 0
      CHANNELS 3 Zrotation Xrotation Yrotation
      JOINT LeftFoot
      {
        OFFSET 40.6238 0 0
        CHANNELS 3 Zrotation Xrotation Yrotation
        JOINT LeftToeBase
        {
          OFFSET 12.7242 0 0
          CHANNELS 3 Zrotation Xrotation Yrotation
          End Site
          {
            OFFSET 0 0 0
          }
        }
      }
    }
  }
  JOINT RightUpLeg
  {
    OFFSET -8.2249 1.95398 -2.59336
    CHANNELS 3 Zrotation Xrotation Yrotation
    JOINT RightLeg
    {
      OFFSET 43.5653 0 0
      CHANNELS 3 Zrotation Xrotation Yrotation
      JOINT RightFoot
      {
        OFFSET 40.6238 0 0
        CHANNELS 3 Zrotation Xrotation Yrotation
        JOINT RightToeBase
        {
          OFFSET 12.7242 0 0
          CHANNELS 3 Zrotation Xrotation Yrotation
          End Site
          {
            OFFSET 0 0 0
          }
        }
      }
    }
  }
  JOINT Spine
  {
    OFFSET 0.165834 0.87714 6.61349
    CHANNELS 3 Zrotation Xrotation Yrotation
    JOINT Spine1
    {
      OFFSET 7.38963 1.71661e-005 0
      CHANNELS 3 Zrotation Xrotation Yrotation
      JOINT Spine2
      {
        OFFSET 11.9445 1.14441e-005 0
        CHANNELS 3 Zrotation Xrotation Yrotation
        JOINT Spine3
        {
          OFFSET 14.7254 4.19617e-005 0
          CHANNELS 3 Zrotation Xrotation Yrotation
          JOINT Spine4
          {
            OFFSET 10.9679 0 0
            CHANNELS 3 Zrotation Xrotation Yrotation
            JOINT RightShoulder
            {
              OFFSET 2.46616 -1.6653 3.69651
              CHANNELS 3 Zrotation Xrotation Yrotation
              JOINT RightArm
              {
                OFFSET 13.0012 0 0
                CHANNELS 3 Zrotation Xrotation Yrotation
                JOINT RightForeArm
                {
                  OFFSET 28.7848 1.52588e-005 0
                  CHANNELS 3 Zrotation Xrotation Yrotation
                  JOINT RightHand
                  {
                    OFFSET 26.5688 1.52588e-005 0
                    CHANNELS 3 Zrotation Xrotation Yrotation
                    End Site
                    {
                      OFFSET 0 0 0
                    }
                  }
                }
              }
            }
            JOINT LeftShoulder
            {
              OFFSET 2.38034 -1.29275 -3.7523
              CHANNELS 3 Zrotation Xrotation Yrotation
              JOINT LeftArm
              {
                OFFSET 16.3182 6.10351e-005 0
                CHANNELS 3 Zrotation Xrotation Yrotation
                JOINT LeftForeArm
                {
                  OFFSET 27.0901 0 0
                  CHANNELS 3 Zrotation Xrotation Yrotation
                  JOINT LeftHand
                  {
                    OFFSET 24.5451 1.52588e-005 0
                    CHANNELS 3 Zrotation Xrotation Yrotation
                    End Site
                    {
                      OFFSET 0 0 0
                    }
                  }
                }
              }
            }
            JOINT Neck
            {
              OFFSET 5.0226 -0.0266342 0
              CHANNELS 3 Zrotation Xrotation Yrotation
              JOINT Head
              {
                OFFSET 6.69364 2.86102e-005 0
                CHANNELS 3 Zrotation Xrotation Yrotation
                End Site
                {
                  OFFSET 0 0 0
                }
              }
            }
          }
        }
      }
    }
  }
}
MOTION
Frames:	18
Frame Time:	0.0416667
-12.8062 89.9146 -14.0413 -105.063 44.4238 -81.6929 -173.457 14.7457 89.9335 -59.3016 9.98178 0.932531 87.4546 11.6929 -2.07595 27.496 -0.642466 1.21582 -178.979 36.1269 82.5605 -90.1638 -5.98626 -2.06326 76.4447 -8.83007 -2.81168 12.3717 -1.3834 4.30849 0.405268 8.47215 -89.8308 9.93088 0.884622 0.262559 -1.73975 0.895309 0.223363 -24.277 0.764802 0.516297 -4.26436 0.7648 0.516305 90.2544 -32.4101 -105.372 33.1825 10.506 4.69329 -37.1749 0.573929 -105.716 -26.5617 2.31908 -20.6421 -84.0136 -46.8401 87.3616 -10.0873 34.8703 0.104748 36.7696 -21.592 -94.5389 -5.33163 0.328245 -20.508 8.59529 32.4988 -3.71665 -18.7238 29.8314 23.0548 
-6.70427 90.4095 -7.83857 -104.934 44.4872 -82.7057 -174.601 20.0108 87.8685 -56.2995 10.7729 0.511188 80.1222 9.17438 1.01973 25.6326 1.07398 -1.42771 178.901 27.5551 81.4389 -97.2638 -3.84985 -1.69707 74.7531 -8.2627 -3.35861 10.3171 -1.7865 5.06579 1.07537 8.40969 -89.8602 10.0549 2.2067 0.0941508 -1.61422 2.2087 -0.0031084 -24.1631 2.07633 0.753292 -4.15043 2.07633 0.753283 91.2459 -27.8148 -105.065 32.1755 14.21 -1.76952 -35.5558 1.04731 -107.414 -27.5641 2.48809 -20.7181 -83.9751 -48.2168 87.5834 -20.3351 32.7476 21.2703 34.0987 -23.6831 -98.4523 -5.50571 0.408851 -22.4765 4.24957 32.4224 0.265661 -15.7599 29.7782 21.6421 
-0.903224 93.1178 -2.49209 -108.647 44.2965 -79.6059 -175.757 17.5889 88.6687 -44.8973 12.6418 0.248297 70.2272 5.00659 1.72194 22.186 0.250885 0.188908 176.778 12.0972 82.0688 -92.7259 -10.152 -2.21453 66.7527 -4.56728 -4.86611 10.0691 -2.1812 5.76721 1.83789 8.55757 -89.9531 9.76534 3.68483 -0.198874 -1.90044 3.6725 -0.361085 -24.4757 3.57401 0.919204 -4.46309 3.57401 0.919199 90.9746 -24.4578 -106.983 30.2725 18.0461 -4.78896 -34.5692 0.55171 -108.398 -26.4846 2.31243 -20.6143 -82.3547 -46.3016 89.9163 -25.614 31.2812 36.5766 30.7603 -26.6307 -103.812 -3.71186 0.133329 -23.183 -2.48116 30.8807 1.27005 -13.6533 28.6345 22.2258 
5.22746 96.2728 3.02237 -109.726 43.7739 -79.1931 -177.713 13.1347 88.858 -24.9957 13.6638 -0.102723 52.7297 -2.32481 -0.142409 22.5442 0.997225 -0.90207 175.008 -0.683763 82.6301 -80.3899 -18.849 -3.52943 60.0699 -0.924812 -4.85328 12.6803 -3.05093 7.37877 2.47829 8.43434 -89.9338 10.0181 4.96906 -0.278903 -1.64338 4.95196 -0.497881 -24.2519 4.8226 1.23099 -4.2393 4.82261 1.23098 91.9756 -19.4182 -106.921 29.9155 16.2698 -6.1086 -33.6063 0.303077 -108.177 -28.395 2.21013 -18.6189 -81.7683 -42.3115 90.512 -29.6444 30.5726 48.8069 27.5249 -28.9906 -108.724 -4.51928 0.307758 -25.4631 -8.18043 29.532 1.53016 -12.8769 27.7227 21.0934 
12.3244 97.2875 9.16422 -105.119 42.3818 -83.0168 -179.02 17.1532 88.7546 -16.8084 21.0141 0.106877 52.9021 -2.13423 -2.84372 17.0469 -4.15318 6.45246 174.444 -6.51538 85.0523 -68.5701 -18.78 -4.12851 62.6095 -1.81145 -1.74788 15.4833 -2.9778 7.35654 2.58398 8.08408 -89.6742 10.7116 5.29594 0.160555 -0.948514 5.29785 -0.0733623 -23.5636 5.00217 1.74879 -3.55094 5.00221 1.74879 93.3235 -14.6619 -105.885 28.2497 13.1006 -7.96605 -33.0829 0.3712 -108.742 -29.7604 2.43381 -18.6048 -83.6571 -37.6972 86.7444 -33.0606 23.6788 57.2162 29.1445 -30.1141 -110.817 -5.40948 0.54923 -28.0837 -6.07628 29.6208 0.232827 -15.3358 27.5179 20.7186 
20.3644 96.6365 16.0177 -98.5545 40.647 -87.5448 -179.023 26.8919 88.8768 -23.7374 23.9911 0.082435 55.8501 -1.18144 -1.14254 19.6937 -3.29046 5.43557 175.582 -5.23618 88.0942 -60.4199 -16.8357 -4.12443 68.0336 -4.15715 -1.9977 16.5962 -2.88228 7.20798 2.36503 7.81263 -89.4779 11.2448 4.94973 0.550527 -0.416742 4.96915 0.331599 -23.0177 4.55499 2.01564 -3.00504 4.55501 2.01565 93.922 -12.5878 -105.308 24.8326 11.9597 -9.5405 -27.15 -1.20956 -111.134 -31.9968 3.22202 -19.5105 -84.4645 -36.4039 85.1318 -31.8029 22.7271 53.8604 29.5349 -28.9763 -109.753 -3.7562 0.20095 -28.1585 -1.06816 31.1753 2.1284 -15.9771 28.6694 19.8194 
28.3954 95.2082 23.0998 -96.3778 39.2672 -89.504 -176.825 34.0333 88.167 -40.1321 18.8556 -0.694539 63.1386 1.86164 -1.805 22.497 -1.82095 3.27952 176.471 -2.60828 89.1087 -55.7299 -17.3451 -4.85101 71.0287 -5.56722 -4.00414 15.5875 -3.3936 8.18 2.10391 7.76589 -89.4283 11.3349 4.4531 0.693559 -0.32854 4.47929 0.496503 -22.9149 4.03847 2.00185 -2.90223 4.03848 2.00185 93.2582 -15.4939 -105.643 22.9346 9.60521 -6.06612 -27.9413 0.318501 -112.398 -29.8776 3.23972 -20.7642 -84.2051 -39.1554 86.0213 -26.4297 24.9905 41.7423 28.7735 -26.3714 -107.72 -3.97006 0.235801 -26.7608 0.843607 33.2179 4.09686 -17.2458 30.1721 20.0613 
36.2697 92.8555 30.5145 -96.8781 39.5633 -90.5601 -172.08 37.9799 86.0871 -60.8471 13.4195 -1.07347 71.709 5.43447 -0.729241 23.6349 -1.10969 2.10493 177.093 -0.341203 88.1104 -53.3865 -17.0449 -6.34706 77.2514 -8.996 -6.07802 30.4985 -3.86077 10.7978 1.78419 7.95417 -89.3527 10.9534 3.85173 0.922253 -0.712021 3.88857 0.751589 -23.2821 3.39635 2.03834 -3.26945 3.39634 2.03833 92.3957 -18.7609 -106.222 23.9952 5.13813 -1.35444 -31.3257 3.86004 -109.186 -31.6264 2.51536 -17.972 -84.7742 -42.8644 85.6093 -20.713 22.2521 27.9312 26.6738 -21.8945 -104.816 -1.24176 -0.281209 -23.1623 2.08908 35.5555 5.49618 -19.2503 31.9471 20.4926 
44.3856 90.1522 38.0723 -97.1418 40.8711 -91.7677 -166.196 38.6761 84.358 -78.931 10.0124 0.23511 74.8948 6.79764 0.547288 23.1537 -0.38945 1.08054 178.145 4.88761 85.8309 -55.8401 -16.2317 -7.32493 94.0874 -16.5062 -1.95967 31.2409 -2.13336 6.13173 1.37435 8.05245 -89.3701 10.7563 3.0272 0.971823 -0.911361 3.06701 0.837534 -23.4656 2.59515 1.83713 -3.453 2.59513 1.83712 92.6024 -20.6001 -104.943 27.6133 1.02301 3.27659 -30.1601 3.04356 -105.89 -29.911 3.27541 -21.3927 -84.0331 -49.7834 87.6737 -11.8729 19.5309 13.2716 23.7527 -18.5509 -103.507 -2.00077 -0.152242 -23.4654 -0.667068 37.7474 12.0555 -15.9252 34.2364 18.5779 
52.3387 87.8132 44.9859 -94.4119 41.3914 -91.7658 -162.798 38.765 87.0063 -92.9121 11.5736 3.22449 72.859 6.20736 2.50451 24.9809 0.873609 -1.0371 179.59 17.3788 86.9787 -62.1517 -12.348 -5.48498 100.625 -18.1283 2.11016 21.9892 -3.10908 7.94392 0.917471 7.91795 -89.7014 11.0355 1.96486 0.40544 -0.634009 1.98079 0.318528 -23.1786 1.75214 0.977376 -3.16596 1.75213 0.977374 92.7533 -21.9961 -104.022 33.3542 -1.57891 11.1152 -40.4722 2.0286 -103.005 -28.3584 1.39748 -15.2445 -80.8564 -56.5163 92.8624 -3.94758 15.7322 -4.69395 26.5597 -18.0316 -103.065 -6.04321 0.548545 -24.1156 0.204339 39.9541 17.5187 -15.0055 36.0194 16.2206 
59.2037 87.2632 50.5857 -94.4332 40.0589 -89.6947 -164.775 31.4548 93.3287 -98.8191 16.3022 5.8616 68.9 4.66536 3.87949 25.7588 2.49401 -3.69802 179.475 26.0703 88.8618 -65.3166 -14.4315 -3.81868 92.6528 -15.5006 -0.654461 20.7806 -2.76261 7.10944 0.302215 7.94703 -89.8768 10.9787 0.658679 0.181412 -0.69211 0.666025 0.152236 -23.2281 0.57371 0.370986 -3.21541 0.573703 0.370986 93.6325 -23.1692 -101.599 42.6181 -2.42385 22.1494 -39.1726 3.30982 -97.629 -27.9393 1.9526 -17.6826 -80.3043 -55.4882 93.5893 -4.88388 10.4314 -17.9523 27.0836 -17.1568 -104.464 -8.26972 0.976432 -24.9036 2.98306 41.3189 16.3663 -17.2922 36.8915 16.3053 
65.0648 88.4214 55.3225 -99.5594 38.0882 -86.0032 -167.144 14.9952 99.4024 -94.3399 22.922 7.66101 65.4822 3.2917 5.65482 25.9082 2.83535 -4.28021 178.832 25.9958 89.1798 -61.7941 -16.1027 -3.56439 85.2674 -12.561 -2.32071 19.7667 -2.75996 7.06201 -0.513258 8.26181 -89.919 10.3521 -0.985421 0.246359 -1.31856 -0.973601 0.289481 -23.8565 -1.0139 -0.0612155 -3.8439 -1.0139 -0.0612245 93.9099 -23.3714 -100.902 49.416 -2.30847 33.3248 -36.3507 3.83903 -94.4128 -26.429 2.70834 -21.5229 -82.786 -51.5675 89.7358 -7.59151 6.18446 -25.4633 26.2733 -16.2803 -106.169 -6.39394 0.7088 -26.4033 -2.63878 39.6681 15.7184 -17.7054 35.7827 19.5211 
70.9292 91.2034 60.1913 -102.985 36.5144 -82.5458 -169.048 -0.596235 102.202 -81.1213 25.8156 9.36635 62.1058 1.75497 3.82831 28.746 0.993604 -1.65106 178.461 23.7845 90.5835 -51.5727 -16.9601 -3.63804 73.2585 -6.94659 -2.82858 20.6267 -2.97742 7.57826 -1.26568 8.43162 -89.9306 10.0159 -2.49067 0.343325 -1.65278 -2.47314 0.452675 -24.2066 -2.47865 -0.421564 -4.194 -2.47864 -0.421565 94.2665 -23.7314 -99.9966 54.0529 -3.56742 41.7844 -35.7142 6.89165 -91.0671 -22.5866 2.82005 -24.8474 -83.7412 -43.9489 87.4345 -7.53906 3.96765 -30.7839 28.303 -17.0584 -106.726 -4.53996 0.283483 -23.996 -7.90281 37.5268 13.6673 -18.6064 34.0837 21.9842 
77.3526 94.7698 66.1529 -103.604 37.0526 -81.5378 -171.059 -10.8299 99.8584 -66.3808 28.5642 10.2939 61.7228 1.56938 2.55418 29.8873 0.398822 -0.794583 178.799 21.2427 90.827 -34.3637 -20.4878 -4.54007 55.6826 0.973806 0.826495 20.6805 -1.91077 5.2237 -1.67701 8.41565 -89.8853 10.0528 -3.28972 0.500949 -1.61419 -3.26448 0.645388 -24.1824 -3.28801 -0.512011 -4.16977 -3.28802 -0.512018 93.1511 -24.3474 -102.26 55.8551 -2.32732 48.4466 -32.3284 8.29449 -90.5122 -20.3217 3.15541 -28.2798 -83.7259 -35.7455 86.3521 -7.11409 2.9647 -33.1808 29.748 -17.5018 -106.586 -4.94363 0.321956 -22.5947 -12.6159 34.3563 12.0781 -18.5406 31.5011 22.5684 
83.803 96.928 72.9946 -101.11 38.1559 -82.4591 -173.244 -13.6735 96.5731 -55.1058 28.2965 9.55495 64.7155 2.87054 3.91741 25.1478 0.540264 -0.528943 178.23 19.0567 90.2332 -18.2465 -28.5604 -5.13417 57.8577 0.111248 0.737459 16.6104 -1.06845 3.52966 -1.65329 8.1007 -90.03 10.6794 -3.30631 0.242219 -0.987365 -3.29244 0.387653 -23.5551 -3.22606 -0.763718 -3.54246 -3.22609 -0.763725 91.3761 -24.0642 -106.261 54.0794 3.44985 52.1721 -35.0311 2.62672 -90.7183 -21.3258 3.24106 -28.8738 -83.3483 -31.8562 86.4577 -4.02958 4.73173 -36.0903 28.5435 -16.9434 -104.909 -2.93094 -0.00228141 -22.3504 -15.7123 30.0952 10.752 -18.5249 27.8564 20.2402 
91.4756 97.1769 80.2783 -95.9933 39.9127 -85.5746 -174.559 -10.3006 93.9701 -45.7319 22.9227 6.42259 64.4843 2.78264 2.50979 28.6741 -1.40052 2.39685 179.646 25.7703 89.5184 -22.3642 -28.4685 -5.814 66.2157 -3.63043 -1.59548 13.0475 -1.47723 4.49253 -1.27823 7.70265 -90.1445 11.4709 -2.6107 -0.0225241 -0.197441 -2.60913 0.0924666 -22.7522 -2.48314 -0.80659 -2.73952 -2.48313 -0.806596 90.4074 -24.8844 -108.017 52.8589 3.05031 49.3631 -31.9326 0.831675 -89.79 -24.527 4.18957 -29.6831 -82.9304 -31.1065 87.1344 -1.38106 7.84966 -37.6829 29.3741 -17.5878 -103.376 -2.5916 -0.0560455 -22.3254 -15.8573 25.817 9.21496 -15.2475 24.4188 16.1406 
99.5717 95.8583 87.716 -93.5679 42.5424 -86.6964 -173.953 -4.38459 93.1955 -42.6668 21.8069 3.16945 67.1763 3.7622 1.99884 31.7917 0.880046 -1.84569 -179.247 32.429 89.7042 -35.8861 -19.4636 -4.70201 71.7305 -6.21864 -1.50122 16.1077 -0.147251 1.69682 -0.832816 7.65694 -90.2277 11.5589 -1.76316 -0.27219 -0.110908 -1.77344 -0.194312 -22.654 -1.59983 -0.789632 -2.64136 -1.59984 -0.789643 88.7632 -27.2403 -110.397 48.0054 0.0301153 41.6475 -31.8992 -0.311456 -90.8398 -26.8323 3.43593 -23.9148 -83.6557 -35.6061 86.4621 2.69316 10.6685 -33.1246 28.4481 -18.483 -103.843 -2.94225 0.00447151 -23.1163 -12.9929 22.5941 6.76389 -14.1964 21.2137 14.3357 
107.007 94.1785 94.7324 -98.2346 43.2838 -81.9296 -172.469 -3.14823 94.1855 -44.305 15.5612 1.63205 75.8172 7.62184 2.0343 45.5425 1.25639 -5.16182 -179.069 32.5298 90.8028 -54.2718 -11.1229 -3.73595 78.127 -8.61754 -0.256822 17.6256 -0.249292 1.82325 -0.49696 8.1572 -90.3085 10.557 -1.13153 -0.511645 -1.11358 -1.15296 -0.461351 -23.6508 -0.925461 -0.828078 -3.63813 -0.925456 -0.828084 89.1856 -27.9896 -109.21 42.8895 -4.28832 30.7643 -35.8649 -1.78609 -88.4605 -28.5795 3.60386 -24.2709 -84.2303 -40.137 86.1179 5.15692 14.9011 -26.3331 27.3554 -18.5816 -102.743 -4.5343 0.255291 -22.544 -8.74406 19.5735 3.33498 -14.145 18.2626 11.9934 
